<?xml version="1.0" encoding="UTF-8"?>
<svg width="22px" height="22px" viewBox="0 0 22 22" version="1.1" xmlns="http://www.w3.org/2000/svg" xmlns:xlink="http://www.w3.org/1999/xlink">
    <!-- Generator: Sketch 52.2 (67145) - http://www.bohemiancoding.com/sketch -->
    <title>Email</title>
    <desc>Created with Sketch.</desc>
    <g id="Artwork" stroke="none" stroke-width="1" fill="none" fill-rule="evenodd">
        <g id="Home" transform="translate(-814.000000, -3976.000000)" fill="#FFFFFF" fill-rule="nonzero">
            <g id="Footer" transform="translate(604.000000, 3541.000000)">
                <g id="Icons" transform="translate(0.000000, 434.000000)">
                    <path d="M221,1 C218.1,1 215.3,2.1 213.2,4.2 C211.1,6.3 210,9.1 210,12 C210,18.1 214.9,23 221,23 C223.4,23 225.8,22.2 227.7,20.7 C228.1,20.4 228.2,19.7 227.9,19.3 C227.6,18.9 226.9,18.8 226.5,19.1 C224.9,20.3 223,21 221,21 C216,21 212,17 212,12 C212,9.6 212.9,7.3 214.6,5.6 C216.3,3.9 218.6,3 221,3 C226,3 230,7 230,12 L230,13 C230,14.1 229.1,15 228,15 C226.9,15 226,14.1 226,13 L226,12 C226,9.2 223.8,7 221,7 C218.2,7 216,9.2 216,12 C216,14.8 218.2,17 221,17 C222.5,17 223.8,16.3 224.7,15.3 C225.4,16.3 226.6,17 228,17 C230.2,17 232,15.2 232,13 L232,12 C232,5.9 227.1,1 221,1 Z M221,15 C219.3,15 218,13.7 218,12 C218,10.3 219.3,9 221,9 C222.7,9 224,10.3 224,12 C224,13.7 222.7,15 221,15 Z" id="Email"></path>
                </g>
            </g>
        </g>
    </g>
</svg>