<?xml version="1.0" encoding="UTF-8"?>
<svg width="38px" height="24px" viewBox="0 0 38 24" version="1.1" xmlns="http://www.w3.org/2000/svg" xmlns:xlink="http://www.w3.org/1999/xlink">
    <!-- Generator: Sketch 52.3 (67297) - http://www.bohemiancoding.com/sketch -->
    <title>amex-outline</title>
    <desc>Created with Sketch.</desc>
    <g id="Page-1" stroke="none" stroke-width="1" fill="none" fill-rule="evenodd">
        <g id="amex-outline" fill="#FFFFFF" fill-rule="nonzero">
            <path d="M33.25,1.13 C35.3210678,1.13 37,2.80893219 37,4.88 L37,19.13 C37,21.2010678 35.3210678,22.88 33.25,22.88 L4.75,22.88 C2.67893219,22.88 1,21.2010678 1,19.13 L1,4.88 C1,2.80893219 2.67893219,1.13 4.75,1.13 L33.25,1.13 Z M33.25,0.13 L4.75,0.13 C2.12664744,0.13 3.21268032e-16,2.25664744 0,4.88 L0,19.13 C3.21268032e-16,21.7533526 2.12664744,23.88 4.75,23.88 L33.25,23.88 C35.8733526,23.88 38,21.7533526 38,19.13 L38,4.88 C38,2.25664744 35.8733526,0.13 33.25,0.13 Z" id="Shape"></path>
            <path d="M18.66,9.5 L18,9.5 L16.5,12.69 L15,9.5 L13,9.5 L13,13.72 L11.08,9.5 L9.18,9.5 L7,14.5 L8.49,14.5 L8.94,13.39 L11.28,13.39 L11.75,14.5 L14.25,14.5 L14.25,10.9 L15.92,14.5 L17.13,14.5 L18.66,11.2 L18.66,14.5 L20,14.5 L20,9.5 L18.7,9.5 L18.66,9.5 Z M9.41,12.25 L10.09,10.59 L10.8,12.25 L9.41,12.25 Z" id="Shape"></path>
            <path d="M31,9.5 L29.24,9.5 L27.82,11 L26.43,9.5 L20.92,9.5 L20.92,14.5 L26.32,14.5 L27.79,12.93 L29.23,14.5 L31,14.5 L28.69,12 L31,9.5 Z M25,14 L25,13.35 L22.2,13.35 L22.2,12.56 L25,12.56 L25,11.43 L22.2,11.43 L22.2,10.64 L25,10.64 L25,9.88 L26.93,12 L25,14 Z" id="Shape"></path>
        </g>
    </g>
</svg>