<?xml version="1.0" encoding="UTF-8"?>
<svg width="38px" height="24px" viewBox="0 0 38 24" version="1.1" xmlns="http://www.w3.org/2000/svg" xmlns:xlink="http://www.w3.org/1999/xlink">
    <!-- Generator: Sketch 52.3 (67297) - http://www.bohemiancoding.com/sketch -->
    <title>discover-outline</title>
    <desc>Created with Sketch.</desc>
    <g id="Page-1" stroke="none" stroke-width="1" fill="none" fill-rule="evenodd">
        <g id="discover-outline" fill="#FFFFFF" fill-rule="nonzero">
            <path d="M33.25,1 C35.3210678,1 37,2.67893219 37,4.75 L37,19 C37,21.0710678 35.3210678,22.75 33.25,22.75 L4.75,22.75 C2.67893219,22.75 1,21.0710678 1,19 L1,4.75 C1,2.67893219 2.67893219,1 4.75,1 L33.25,1 Z M33.25,8.8817842e-16 L4.75,8.8817842e-16 C2.12664744,0 3.21268032e-16,2.12664744 0,4.75 L0,19 C3.21268032e-16,21.6233526 2.12664744,23.75 4.75,23.75 L33.25,23.75 C35.8733526,23.75 38,21.6233526 38,19 L38,4.75 C38,2.12664744 35.8733526,0 33.25,8.8817842e-16 Z" id="Shape"></path>
            <path d="M20.44,10.0002011 C19.2112319,10.0331264 18.2385479,11.0501165 18.2603526,12.2791323 C18.2821573,13.508148 19.2903038,14.4899951 20.5194665,14.4793128 C21.7486293,14.4686305 22.739559,13.4694102 22.74,12.2402011 C22.7320959,11.6381429 22.4853217,11.0638894 22.0539765,10.6437967 C21.6226313,10.2237039 21.0420569,9.99219182 20.44,10.0002011 Z M8.66,14.3602011 L9.44,14.3602011 L9.44,10.1102011 L8.66,10.1102011 L8.66,14.3602011 Z M7.26,10.6302011 C7.0524136,10.4531317 6.81079164,10.3204097 6.55,10.2402011 C6.28181103,10.1538264 6.00175495,10.1099622 5.72,10.1102011 L4,10.1102001 L4,14.3602011 L5.63,14.3602011 C5.90508474,14.3588533 6.17830906,14.3150025 6.44,14.2302011 C6.69737557,14.1420938 6.93757999,14.0101506 7.15,13.8402011 C7.37897867,13.6626402 7.56664114,13.4374452 7.7,13.1802011 C7.847131,12.8856479 7.9192653,12.5593261 7.91,12.2302011 C7.91590928,11.9067671 7.8510631,11.5859492 7.72,11.2902011 C7.61472959,11.0403315 7.45799171,10.8154467 7.26,10.6302011 Z M6.99,12.9302011 C6.90097431,13.1055707 6.77054294,13.2565965 6.61,13.3702011 C6.44048035,13.4875915 6.25057349,13.5723713 6.05,13.6202011 C5.82417568,13.6752009 5.59241796,13.7020714 5.36,13.7002011 L4.78,13.7002011 L4.78,10.8002011 L5.49,10.8002011 C5.71257404,10.7974849 5.93452048,10.8243875 6.15,10.8802011 C6.33842416,10.9276001 6.51530751,11.0126402 6.67,11.1302011 C6.81892943,11.2496534 6.93577673,11.4043042 7.01,11.5802011 C7.09589714,11.7893352 7.13678453,12.0142158 7.13,12.2402011 C7.14072924,12.47821 7.09264518,12.7151957 6.99,12.9302011 Z M12.6,12.1702011 C12.4438385,12.074997 12.2756939,12.0010134 12.1,11.9502011 L11.6,11.7902011 C11.4645611,11.7417298 11.3366348,11.6744001 11.22,11.5902011 C11.1188113,11.5115324 11.0627359,11.3881665 11.07,11.2602011 C11.0668951,11.1729622 11.0876392,11.0865282 11.13,11.0102011 C11.1694719,10.9419258 11.22424,10.8837347 11.29,10.8402011 C11.360226,10.7936689 11.4380735,10.7598222 11.52,10.7402011 C11.606378,10.7301974 11.693622,10.7301974 11.78,10.7402011 C11.9304253,10.738577 12.0797736,10.7657312 12.22,10.8202011 C12.3537095,10.8715938 12.4687468,10.9622292 12.55,11.0802011 L13.12,10.5002011 C12.9536764,10.3460595 12.7557472,10.230032 12.54,10.1602011 C12.3231329,10.0926338 12.0971453,10.0589043 11.87,10.0602011 C11.6706739,10.0608484 11.4723013,10.0877463 11.28,10.1402011 C11.0937164,10.1884812 10.9175971,10.269767 10.76,10.3802011 C10.6123818,10.4858157 10.4895353,10.6223118 10.4,10.7802011 C10.3034927,10.9543775 10.2551665,11.151134 10.26,11.3502011 C10.2486288,11.5607248 10.3008966,11.7697961 10.41,11.9502011 C10.508632,12.0967022 10.6383852,12.2196263 10.79,12.3102011 C10.9470868,12.4011213 11.1151023,12.4716878 11.29,12.5202011 L11.79,12.6902011 C11.9270238,12.7395576 12.0553009,12.8104476 12.17,12.9002011 C12.2733556,12.9902784 12.3288168,13.1233853 12.32,13.2602011 C12.3219504,13.3517713 12.2976613,13.4419879 12.25,13.5202011 C12.2043363,13.5930031 12.1428019,13.6545374 12.07,13.7002011 C11.9931411,13.7501043 11.9087181,13.7872504 11.82,13.8102011 C11.7303679,13.8217102 11.6396321,13.8217102 11.55,13.8102011 C11.3794369,13.8098271 11.2114345,13.7686836 11.06,13.6902011 C10.9109216,13.6130029 10.7836778,13.4995152 10.69,13.3602011 L10.15,13.9302011 C10.3240923,14.1316013 10.5483352,14.2833965 10.8,14.3702011 C11.0507905,14.4572815 11.3145234,14.501237 11.58,14.5002011 C11.7860927,14.5025044 11.9914708,14.4755696 12.19,14.4202011 C12.3741979,14.3696521 12.5472179,14.2848383 12.7,14.1702011 C12.8469374,14.0584813 12.9666086,13.9148759 13.05,13.7502011 C13.1406139,13.5634481 13.1851901,13.3577116 13.18,13.1502011 C13.1921565,12.9364399 13.1399043,12.7239474 13.03,12.5402011 C12.9213756,12.3738434 12.7737657,12.2365319 12.6,12.1402011 L12.6,12.1702011 Z M28.21,12.5502011 L30.21,12.5502011 L30.21,11.8702011 L28.21,11.8702011 L28.21,10.8702011 L30.33,10.8702011 L30.33,10.1902011 L27.43,10.1902011 L27.43,14.4402011 L30.43,14.4402011 L30.43,13.7602011 L28.2,13.7602011 L28.21,12.5502011 Z M33.34,12.5502011 C33.6292845,12.5237182 33.8975469,12.3877986 34.09,12.1702011 C34.3890234,11.7749022 34.4393358,11.2446873 34.22,10.8002011 C34.1344515,10.6474854 34.010315,10.5199007 33.86,10.4302011 C33.6998817,10.3332593 33.5238117,10.26554 33.34,10.2302011 C33.139073,10.1906058 32.934791,10.1705125 32.73,10.1702011 L31.15,10.1702011 L31.15,14.4202011 L31.93,14.4202011 L31.93,12.6202011 L32.5,12.6202011 L33.5,14.4202011 L34.44,14.4202011 L33.34,12.5502011 Z M32.91,11.9302011 L32.58,11.9302011 L31.98,11.9302011 L31.98,10.7602011 L32.65,10.7602011 L32.96,10.7602011 C33.0601477,10.7720918 33.1579204,10.7990636 33.25,10.8402011 C33.3342742,10.8765227 33.406927,10.9353368 33.46,11.0102011 C33.5171979,11.0994562 33.5451608,11.204317 33.54,11.3102011 C33.5465517,11.4270474 33.5149665,11.5428598 33.45,11.6402011 C33.3907305,11.7172521 33.3110496,11.7761467 33.22,11.8102011 C33.1240852,11.867216 33.0193045,11.9077763 32.91,11.9302011 Z M16.54,13.6602011 C16.3784742,13.7404225 16.2003449,13.7815292 16.02,13.7802011 C15.8105707,13.7826548 15.6028942,13.7418004 15.41,13.6602011 C15.232493,13.5833597 15.0725561,13.4710636 14.94,13.3302011 C14.8040311,13.1861256 14.6985865,13.0160537 14.63,12.8302011 C14.5558121,12.628507 14.5185508,12.4151017 14.52,12.2002011 C14.5195988,11.9983998 14.5569055,11.7982999 14.63,11.6102011 C14.7009426,11.4314647 14.8062653,11.2683843 14.94,11.1302011 C15.0731286,10.9925082 15.2330939,10.8835957 15.41,10.8102011 C15.6031426,10.7294155 15.8106491,10.6885946 16.02,10.6902011 C16.3741595,10.6850288 16.7119107,10.8392196 16.94,11.1102011 L17.54,10.6802011 C17.346786,10.4542345 17.1037352,10.2762254 16.83,10.1602011 C16.56886,10.0579203 16.2904374,10.0069893 16.01,10.0102011 C15.6928712,10.0068073 15.3777611,10.0610198 15.08,10.1702011 C14.8083041,10.2683917 14.55979,10.4215853 14.35,10.6202011 C14.1424488,10.8209818 13.9789793,11.0627803 13.87,11.3302011 C13.7522322,11.6258634 13.6944445,11.9419959 13.7,12.2602011 C13.6946824,12.571898 13.7525101,12.8814463 13.87,13.1702011 C13.979932,13.4341843 14.1433671,13.6725271 14.35,13.8702011 C14.5603091,14.0681404 14.8086752,14.2212428 15.08,14.3202011 C15.3777611,14.4293824 15.6928712,14.4835949 16.01,14.4802011 C16.3224102,14.4826286 16.63204,14.4213831 16.92,14.3002011 C17.2079125,14.1753344 17.4566954,13.9749259 17.64,13.7202011 L17,13.2802011 C16.8757532,13.4384499 16.7188572,13.5680596 16.54,13.6602011 Z M24.89,13.3202011 L23.7,10.1102011 L22.81,10.1102011 L24.53,14.3602011 L25.15,14.3602011 L26.92,10.1102011 L26.15,10.1102011 L24.89,13.3202011 Z" id="Shape"></path>
        </g>
    </g>
</svg>