<?xml version="1.0" encoding="UTF-8"?>
<svg width="24px" height="24px" viewBox="0 0 24 24" version="1.1" xmlns="http://www.w3.org/2000/svg" xmlns:xlink="http://www.w3.org/1999/xlink">
    <!-- Generator: Sketch 52.2 (67145) - http://www.bohemiancoding.com/sketch -->
    <title>Dribbble</title>
    <desc>Created with Sketch.</desc>
    <g id="Artwork" stroke="none" stroke-width="1" fill="none" fill-rule="evenodd">
        <g id="Home" transform="translate(-743.000000, -3975.000000)" fill="#FFFFFF" fill-rule="nonzero">
            <g id="Footer" transform="translate(604.000000, 3541.000000)">
                <g id="Icons" transform="translate(0.000000, 434.000000)">
                    <path d="M151,0 C144.375,0 139,5.375 139,12 C139,18.63125 144.375,24 151,24 C157.625,24 163,18.63125 163,12 C163,5.375 157.625,0 151,0 Z M158.61875,5.53125 C159.96875,7.11875 160.825,9.13125 160.975,11.3375 C158.8125,11.225 156.225,11.225 154.15,11.41875 C153.8875,10.75625 153.61875,10.10625 153.325,9.48125 C155.71875,8.44375 157.5625,7.08125 158.61875,5.53125 Z M151,2 C153.425,2 155.65,2.8625 157.38125,4.3 C156.29375,5.675 154.5875,6.86875 152.4625,7.775 C151.3,5.625 149.9625,3.775 148.5375,2.31875 C149.33125,2.11875 150.15,2 151,2 Z M146.475,3.09375 C147.91875,4.53125 149.275,6.3625 150.4625,8.50625 C148.20625,9.19375 145.61875,9.5875 142.85625,9.5875 C142.33125,9.5875 141.81875,9.56875 141.3125,9.5375 C142.03125,6.71875 143.9375,4.38125 146.475,3.09375 Z M141.01875,11.525 C141.5875,11.55 142.1625,11.5625 142.74375,11.55625 C145.89375,11.51875 148.825,11.025 151.34375,10.21875 C151.58125,10.7125 151.80625,11.21875 152.01875,11.7375 C151.675,11.81875 151.36875,11.90625 151.125,12.00625 C147.68125,13.45 144.96875,15.78125 143.5,18.6 C141.95,16.8375 141,14.53125 141,12 C141,11.8375 141.00625,11.68125 141.01875,11.525 Z M151,22 C148.6875,22 146.5625,21.2125 144.86875,19.89375 C146.2,17.25625 148.575,15.075 151.56875,13.71875 C151.85,13.5875 152.225,13.48125 152.65625,13.3875 C153.0125,14.375 153.33125,15.4 153.6125,16.4625 C154.04375,18.11875 154.35,19.75625 154.5375,21.34375 C153.4375,21.7625 152.25,22 151,22 Z M156.40625,20.40625 C156.21875,18.8 155.9125,17.15 155.475,15.475 C155.2625,14.6625 155.01875,13.875 154.75625,13.10625 C156.71875,12.94375 159.06875,12.96875 160.9375,13.10625 C160.6,16.175 158.875,18.8125 156.40625,20.40625 Z" id="Dribbble"></path>
                </g>
            </g>
        </g>
    </g>
</svg>