<?xml version="1.0" encoding="UTF-8"?>
<svg width="38px" height="24px" viewBox="0 0 38 24" version="1.1" xmlns="http://www.w3.org/2000/svg" xmlns:xlink="http://www.w3.org/1999/xlink">
    <!-- Generator: Sketch 52.3 (67297) - http://www.bohemiancoding.com/sketch -->
    <title>visa-outline</title>
    <desc>Created with Sketch.</desc>
    <g id="Page-1" stroke="none" stroke-width="1" fill="none" fill-rule="evenodd">
        <g id="visa-outline" fill="#FFFFFF" fill-rule="nonzero">
            <path d="M33.25,1.13 C35.3210678,1.13 37,2.80893219 37,4.88 L37,19.13 C37,21.2010678 35.3210678,22.88 33.25,22.88 L4.75,22.88 C2.67893219,22.88 1,21.2010678 1,19.13 L1,4.88 C1,2.80893219 2.67893219,1.13 4.75,1.13 L33.25,1.13 Z M33.25,0.13 L4.75,0.13 C2.12664744,0.13 3.21268032e-16,2.25664744 0,4.88 L0,19.13 C3.21268032e-16,21.7533526 2.12664744,23.88 4.75,23.88 L33.25,23.88 C35.8733526,23.88 38,21.7533526 38,19.13 L38,4.88 C38,2.25664744 35.8733526,0.13 33.25,0.13 Z" id="Shape"></path>
            <path d="M15.76,8.57 L12.89,15.46 L11,15.46 L9.61,10 C9.58715894,9.73690328 9.42763129,9.50520837 9.19,9.39 C8.63375218,9.12063772 8.04579141,8.92241095 7.44,8.8 L7.44,8.6 L10.44,8.6 C10.8483021,8.59988 11.1960491,8.89673714 11.26,9.3 L12.01,13.3 L13.85,8.61 L15.76,8.57 Z M23.09,13.21 C23.09,11.39 20.59,11.29 20.61,10.48 C20.61,10.23 20.85,9.97 21.36,9.9 C21.957356,9.84421814 22.5586639,9.95134771 23.1,10.21 L23.41,8.75 C22.879801,8.54771763 22.3174696,8.44270393 21.75,8.44 C20,8.44 18.75,9.38 18.75,10.72 C18.75,11.72 19.63,12.27 20.3,12.6 C20.97,12.93 21.22,13.15 21.22,13.46 C21.22,13.92 20.67,14.13 20.16,14.13 C19.5255437,14.142708 18.8985822,13.9911349 18.34,13.69 L18,15.2 C18.6366667,15.4508112 19.3157418,15.5764401 20,15.57 C21.86,15.57 23.07,14.65 23.08,13.21 L23.09,13.21 Z M27.7,15.46 L29.34,15.46 L27.91,8.57 L26.41,8.57 C26.0793371,8.57097876 25.7824668,8.77285053 25.66,9.08 L23,15.46 L24.86,15.46 L25.23,14.46 L27.5,14.46 L27.7,15.46 Z M25.7,13.02 L26.63,10.43 L27.2,13 L25.7,13.02 Z M18.26,8.57 L16.8,15.46 L15.06,15.46 L16.52,8.57 L18.26,8.57 Z" id="Shape"></path>
        </g>
    </g>
</svg>