<?xml version="1.0" encoding="UTF-8"?>
<svg width="22px" height="22px" viewBox="0 0 22 22" version="1.1" xmlns="http://www.w3.org/2000/svg" xmlns:xlink="http://www.w3.org/1999/xlink">
    <!-- Generator: Sketch 52.2 (67145) - http://www.bohemiancoding.com/sketch -->
    <title>Instagram</title>
    <desc>Created with Sketch.</desc>
    <g id="Artwork" stroke="none" stroke-width="1" fill="none" fill-rule="evenodd">
        <g id="Home" transform="translate(-675.000000, -3976.000000)" fill="#FFFFFF" fill-rule="nonzero">
            <g id="Footer" transform="translate(604.000000, 3541.000000)">
                <g id="Icons" transform="translate(0.000000, 434.000000)">
                    <path d="M87,1 L77,1 C73.7,1 71,3.7 71,7 L71,17 C71,20.3 73.7,23 77,23 L87,23 C90.3,23 93,20.3 93,17 L93,7 C93,3.7 90.3,1 87,1 Z M91,17 C91,19.2 89.2,21 87,21 L77,21 C74.8,21 73,19.2 73,17 L73,7 C73,4.8 74.8,3 77,3 L87,3 C89.2,3 91,4.8 91,7 L91,17 Z M82.8,7 C82.3,6.9 81.8,6.9 81.3,7 C78.6,7.4 76.7,10 77.1,12.7 C77.5,15.2 79.6,17 82,17 C82.2,17 82.5,17 82.7,16.9 C84,16.7 85.2,16 86,14.9 C86.8,13.8 87.1,12.5 86.9,11.2 C86.7,9 85,7.3 82.8,7 Z M84.5,13.7 C84,14.3 83.3,14.8 82.5,14.9 C80.9,15.1 79.3,14 79.1,12.4 C78.8,10.8 80,9.2 81.6,9 C81.7,9 81.9,9 82,9 C82.1,9 82.3,9 82.4,9 C83.7,9.2 84.7,10.2 84.9,11.5 C85.1,12.3 84.9,13.1 84.5,13.7 Z M88.4,6.1 C88.4,6.2 88.5,6.3 88.5,6.5 C88.5,6.8 88.4,7 88.2,7.2 C88,7.4 87.7,7.5 87.5,7.5 C87.3,7.5 87,7.4 86.8,7.2 C86.6,7 86.5,6.7 86.5,6.5 C86.5,6.4 86.5,6.2 86.6,6.1 C86.6,6 86.7,5.9 86.8,5.8 C87.2,5.4 87.8,5.4 88.2,5.8 C88.3,5.9 88.4,6 88.4,6.1 Z" id="Instagram"></path>
                </g>
            </g>
        </g>
    </g>
</svg>