<?xml version="1.0" encoding="UTF-8"?>
<svg width="60px" height="33px" viewBox="0 0 60 33" version="1.1" xmlns="http://www.w3.org/2000/svg" xmlns:xlink="http://www.w3.org/1999/xlink">
    <!-- Generator: Sketch 52.6 (67491) - http://www.bohemiancoding.com/sketch -->
    <title>logo-ryanrose</title>
    <desc>Created with Sketch.</desc>
    <g id="Page-1" stroke="none" stroke-width="1" fill="none" fill-rule="evenodd">
        <g id="logo-ryanrose" fill="#FFFFFF" fill-rule="nonzero">
            <path d="M49.026,17.2937368 L40.5197143,17.2937368 C40.5197143,17.2937368 39.858,16.2351316 38.9134286,15.7687895 C38.9134286,15.7687895 44.2542857,13.5213158 46.6242857,10.1865789 C48.9942857,6.85184211 47.9931429,3.74115789 47.9931429,3.74115789 L48.7482857,3.74115789 C49.5514286,3.74115789 51.3462857,3.91831579 52.0714286,4.26742105 C52.7957143,4.61739474 53.4317143,5.10457895 53.9717143,5.72984211 C54.5108571,6.35510526 54.942,7.07155263 55.266,7.87918421 C55.59,8.68594737 55.7537143,9.64381579 55.7537143,10.5287368 C55.7537143,11.4136579 55.6157143,12.2673158 55.3371429,13.0888421 C55.0594286,13.9103684 54.6711429,14.6372368 54.1782857,15.2607632 C53.6845714,15.8842895 53.0914286,16.3810263 52.3962857,16.7457632 C51.7011429,17.1105 49.89,17.2937368 49.026,17.2937368 Z M18.0162857,14.3523947 C17.2234286,15.1027105 16.5788571,15.8634474 16.0851429,16.632 C15.96,16.8273947 15.8417143,17.0262632 15.732,17.2312105 L9.91371429,17.2312105 C9.04885714,17.2312105 8.268,17.0479737 7.57371429,16.6823684 C6.87942857,16.3167632 6.28457143,15.8235 5.79085714,15.1973684 C5.29714286,14.5712368 4.91057143,13.8478421 4.63285714,13.0245789 C4.35428571,12.2021842 4.21542857,11.3771842 4.21542857,10.4644737 C4.21542857,9.55263158 4.37742857,8.68855263 4.70142857,7.88265789 C5.02542857,7.07676316 5.45657143,6.35771053 5.99828571,5.73418421 C6.54,5.11152632 7.17171429,4.62347368 7.89771429,4.27263158 C8.62457143,3.92178947 9.38742857,3.74636842 10.1905714,3.74636842 L22.6928571,3.74636842 C19.7425714,7.18184211 21.2408571,11.6915526 21.2888571,11.8365789 C21.2905714,11.8374474 21.2905714,11.8374474 21.2905714,11.8391842 C19.9551429,12.6077368 18.8734286,13.4996053 18.036,14.3341579 C18.03,14.3393684 18.0231429,14.3454474 18.0162857,14.3523947 Z M25.6731429,11.7922895 C26.8242857,11.7922895 27.4002857,12.2551579 27.4002857,13.1774211 C27.4002857,13.6411579 27.2408571,14.0319474 26.922,14.355 C26.6022857,14.6789211 26.2191429,14.8413158 25.7674286,14.8413158 C24.5854286,14.8413158 23.6854286,14.0632105 23.0631429,12.5087368 C24.1045714,12.0311053 24.9745714,11.7922895 25.6731429,11.7922895 Z M55.9174286,18.8473421 C56.7642857,18.2377105 57.4894286,17.5073684 58.0928571,16.6545789 C58.6954286,15.8017895 59.1582857,14.8482632 59.4822857,13.7966053 C59.8071429,12.7458158 59.97,11.7393158 59.97,10.4601316 C59.97,9.18007895 59.7205714,7.92434211 59.2268571,6.68944737 C58.7331429,5.45455263 58.0457143,4.34384211 57.1662857,3.35297368 C56.2868571,2.36210526 55.2394286,1.56836842 54.0171429,0.975236842 C52.7957143,0.382105263 50.43,0.0842368421 48.9805714,0.0842368421 L43.5385714,0.0842368421 C43.374,0.0842368421 43.2034286,0.0859736842 43.032,0.0859736842 C41.784,0.0859736842 40.6928571,0.519315789 39.756,1.4355 C38.8191429,2.35255263 38.352,3.74115789 38.352,4.63476316 C38.352,5.5275 38.5791429,6.25089474 39.0377143,6.80494737 C39.4954286,7.359 40.3534286,7.63689474 40.8651429,7.63689474 C41.3768571,7.63689474 41.8474286,7.43021053 42.2734286,7.01771053 C42.7002857,6.60521053 42.9145714,6.08415789 42.9145714,5.643 C42.9145714,5.20184211 42.4851429,4.90223684 41.6271429,4.75026316 C40.9097143,4.61044737 40.5514286,4.29607895 40.5514286,3.67255263 C40.5514286,3.04989474 40.7922857,2.49063158 41.2714286,1.99997368 C41.7505714,1.50931579 42.0685714,1.26268421 42.9342857,1.26268421 C43.8,1.26268421 44.5354286,1.584 45.1414286,2.22402632 C45.7474286,2.86405263 46.05,3.63868421 46.05,4.54878947 C46.05,7.38592105 43.4648571,9.96165789 38.2945714,12.1361842 L34.9422857,13.5482368 C30.9754286,15.2103947 28.9902857,17.3284737 28.9902857,19.8981316 C28.9902857,21.1616842 29.3674286,22.2463421 30.1148571,23.1547105 C30.8622857,24.0630789 32.13,24.5163947 32.7831429,24.5163947 C33.4362857,24.5163947 33.9968571,24.3296842 34.4554286,23.9562632 C34.9148571,23.5819737 35.1634286,23.0296579 35.1925714,22.572 C35.2225714,22.1134737 34.8325714,21.8842105 34.6414286,21.8842105 C34.4502857,21.8842105 34.2677143,22.0231579 34.092,22.3001842 C33.8108571,22.7925789 33.5065714,23.0392105 32.9922857,23.0392105 C32.4771429,23.0392105 32.0442857,22.8307895 31.6937143,22.4130789 C31.3431429,21.9945 31.1657143,21.4847368 31.1657143,20.8829211 C31.1657143,19.9094211 31.5222857,19.0792105 32.232,18.3905526 C32.9408571,17.7018947 33.7491429,17.3571316 34.7948571,17.3571316 C35.8397143,17.3571316 36.7517143,17.7705 37.5317143,18.5920263 C38.3125714,19.4144211 38.7025714,20.3775 38.7025714,21.4847368 C38.7025714,23.9128421 37.6731429,26.0387368 35.61,27.8598158 C33.546,29.6800263 31.2085714,30.5901316 28.4065714,30.5901316 C25.6045714,30.5901316 23.196,29.5784211 21.18,27.5567368 C19.164,25.5359211 18.1568571,23.2710789 18.1568571,20.3514474 C18.1568571,17.4309474 19.356,15.0618947 21.7577143,13.2477632 C22.8651429,15.4344474 24.3951429,16.5277895 26.3451429,16.5277895 C27.4071429,16.5277895 28.26,16.2455526 28.908,15.6836842 C29.5568571,15.1218158 29.8791429,14.4175263 29.8791429,13.4787632 C29.8791429,12.54 29.52,11.7922895 28.8025714,11.2382368 C28.0851429,10.6841842 27.1328571,10.4071579 25.9457143,10.4071579 C24.7585714,10.4071579 23.6657143,10.6468421 22.6662857,11.1227368 C22.6234286,10.5217895 22.602,10.0606579 22.602,9.73760526 C22.602,7.89047368 23.25,6.24915789 24.546,4.818 C25.8428571,3.38771053 27.3128571,2.67126316 28.9594286,2.67126316 C29.766,2.67126316 30.4422857,2.8545 30.9848571,3.22444737 C31.5274286,3.59526316 31.7982857,4.28739474 31.7982857,4.61044737 C31.7982857,4.9335 31.6294286,5.41113158 31.4254286,5.76544737 C31.2214286,6.11976316 31.1211429,6.08068421 31.1211429,6.52792105 C31.1211429,6.97428947 31.2034286,7.19660526 32.0374286,7.19660526 C32.8705714,7.19660526 33.588,6.87789474 34.1922857,6.24134211 C34.7965714,5.60478947 35.0991429,5.11760526 35.0991429,3.95131579 C35.0991429,2.78502632 34.6277143,1.85060526 33.6831429,1.14371053 C32.7385714,0.437684211 31.5025714,0.0842368421 29.9725714,0.0842368421 C29.8782857,0.0842368421 29.7822857,0.0868421053 29.6871429,0.0894473684 L9.95914286,0.0894473684 C8.50885714,0.0894473684 7.17171429,0.389052632 5.952,0.982184211 C4.73228571,1.57444737 3.68485714,2.36818421 2.80371429,3.35818421 C1.92257143,4.34905263 1.236,5.4615 0.742285714,6.69552632 C0.248571429,7.92955263 0,9.33552632 0,10.4644737 C0,11.5942895 0.162857143,12.6824211 0.486857143,13.7332105 C0.811714286,14.784 1.27457143,15.7383947 1.87628571,16.5911842 C2.47885714,17.4439737 3.20571429,18.1769211 4.05428571,18.7856842 C4.90371429,19.3935789 5.85342857,19.8364737 6.90171429,20.1108947 L0.00685714286,32.5432105 L4.73057143,32.5432105 L11.1634286,20.8881316 L14.5971429,20.8881316 C14.5362857,21.3813947 14.5071429,21.8885526 14.5071429,22.4156842 C14.5071429,25.4942368 15.6025714,27.9588158 17.7934286,29.8050789 C19.9851429,31.6522105 22.6345714,32.5770789 26.5345714,32.5770789 C30.4345714,32.5770789 33.9677143,31.2787895 36.7825714,28.974 C39.5982857,26.6683421 41.0631429,23.9944737 41.1754286,20.9506579 L48.8065714,20.9506579 L55.2754286,32.5432105 L60,32.5432105 L53.0674286,20.1734211 C54.1157143,19.899 55.0662857,19.4578421 55.9174286,18.8473421 Z" id="Shape"></path>
        </g>
    </g>
</svg>