<?xml version="1.0" encoding="UTF-8"?>
<svg width="36px" height="36px" viewBox="0 0 36 36" version="1.1" xmlns="http://www.w3.org/2000/svg" xmlns:xlink="http://www.w3.org/1999/xlink">
    <!-- Generator: Sketch 52.6 (67491) - http://www.bohemiancoding.com/sketch -->
    <title>Shape</title>
    <desc>Created with Sketch.</desc>
    <g id="Page-1" stroke="none" stroke-width="1" fill="none" fill-rule="evenodd">
        <g id="logo-vera" transform="translate(-1.000000, -1.000000)" fill="#FFFFFF" fill-rule="nonzero">
            <path d="M18.9743562,37 C18.565042,37 18.1557278,36.6449315 18.0028514,36.2385753 C16.9287715,32.9887123 15.7521164,29.7388493 14.4215987,26.540274 C13.5497101,24.4049315 12.5949724,22.3041096 11.5573855,20.243726 C9.92012868,16.8932603 8.18128302,13.5921096 6.23728711,10.4438356 L5.93054803,9.98717808 C4.49844145,7.44843836 2.86118462,4.96 1.17362652,2.52284932 C0.917188702,2.16778082 0.968476265,1.76142466 1.17362652,1.40635616 C1.32650291,1.15287671 1.63324199,1 1.94096737,1 C2.0425562,1 2.14513133,1 2.24770645,1.05128767 C7.41394217,2.67572603 12.2221512,5.26476712 16.4681697,8.66750685 C16.6723337,8.81939726 16.8774839,8.97128767 17.0816479,9.17446575 L18.3095905,10.2416438 L19.0769313,10.9517808 L19.6391219,10.4438356 L20.8670646,9.37764384 C21.0712285,9.22575342 21.2250912,9.07386301 21.4292552,8.9209863 C25.7778488,5.41764384 30.3818939,2.7260274 35.7522935,1.10158904 C35.8548687,1.05128767 36.0087314,1.05128767 36.1103202,1.05128767 C36.4170593,1.10158904 36.6734971,1.20317808 36.8263735,1.45665753 C37.0828113,1.76142466 37.0315237,2.21906849 36.8263735,2.57413699 C35.0875278,5.01128767 33.6041337,7.44843836 32.069452,9.98717808 L32.0181644,10.0887671 C32.0181644,10.0887671 31.865288,10.3935342 31.7627129,10.4951233 C29.818717,13.7449863 27.9772962,17.1467397 26.3400394,20.5997808 C25.3685346,22.5792877 24.447331,24.6110685 23.6287026,26.641863 C22.2991711,29.790137 21.0712285,33.141589 19.9971486,36.4417534 C19.7929846,36.7465205 19.3836704,37 18.9743562,37 Z M5.77668533,5.97589041 C6.3911498,6.94049315 7.05591552,7.95638356 7.61810612,8.9209863 C7.61810612,8.9209863 7.82325637,9.2770411 7.9248452,9.42893151 C9.86884112,12.6787945 11.6589743,16.0292603 13.2962312,19.3807123 C14.3190235,21.4627945 15.2915146,23.5951781 16.1604443,25.7788493 C16.8774839,27.4545753 17.5422496,29.1806027 18.1557278,30.9066301 L18.9743562,32.9887123 L19.7416971,30.9066301 C20.3551752,29.1806027 21.0712285,27.4545753 21.7872818,25.7788493 C22.5043214,24.0015342 23.3219635,22.2242192 24.1405919,20.4981918 L24.2431671,20.243726 L23.8338529,19.6341918 C23.7825653,19.533589 23.6799902,19.432 23.6287026,19.330411 L23.5271138,19.2288219 C23.3732511,19.0256438 23.270676,18.8224658 23.1177996,18.669589 C23.0152244,18.5176986 22.9126493,18.4161096 22.8110605,18.2642192 C22.6571978,18.0610411 22.5546227,17.9081644 22.4017463,17.7049863 C22.2991711,17.5530959 22.196596,17.4002192 22.0950072,17.2986301 C21.9411445,17.0954521 21.7872818,16.9435616 21.685693,16.7403836 C21.5831179,16.5884932 21.4805427,16.4869041 21.3779676,16.3340274 C21.2250912,16.1308493 21.0712285,15.9789589 20.9183521,15.7757808 L20.8670646,15.6741918 C20.7644894,15.5726027 20.7132019,15.4710137 20.6116131,15.3694247 C20.4577504,15.1662466 20.3038877,15.0143562 20.1510113,14.8111781 L20.0484362,14.709589 C19.9971486,14.608 19.8945735,14.5567123 19.8442722,14.4551233 C19.6391219,14.2529315 19.4862456,14.0497534 19.2810953,13.8968767 L19.1785202,13.7952877 L19.0256438,13.6433973 C18.7189047,13.3386301 18.4624669,13.033863 18.1557278,12.7803836 C17.3883869,12.0692603 16.6210461,11.358137 15.8537052,10.6983014 C15.6495413,10.5454247 15.4956786,10.3935342 15.2915146,10.2416438 C12.682753,8.10827397 9.81755355,6.3309589 6.79947771,4.90969863 L4.34457876,3.74191781 L5.77668533,5.97589041 Z M31.4046862,4.75780822 C28.2327477,6.17906849 25.317247,8.15956164 22.6059102,10.3935342 C22.4017463,10.5454247 22.2478836,10.6983014 22.0437196,10.8501918 C21.685693,11.1549589 21.3779676,11.4094247 21.0209273,11.7644932 L20.4064628,12.3227397 L20.7132019,12.6275068 C20.7644894,12.6787945 20.815777,12.7290959 20.815777,12.7803836 L20.9696397,12.932274 C21.1738036,13.1354521 21.3276663,13.3386301 21.5318303,13.5418082 C21.685693,13.6936986 21.7872818,13.8465753 21.9411445,13.9984658 C22.0950072,14.2016438 22.2991711,14.4048219 22.4530338,14.608 C22.6059102,14.7598904 22.7084854,14.9127671 22.862348,15.0646575 C23.0152244,15.2678356 23.2203747,15.4710137 23.3732511,15.7244932 L23.4245386,15.7757808 C23.5271138,15.9276712 23.6287026,16.0292603 23.7312777,16.182137 C23.8851404,16.3853151 24.0893044,16.6387945 24.2431671,16.8419726 C24.2944546,16.8932603 24.3457422,16.9435616 24.3457422,16.993863 C24.3960434,17.0451507 24.447331,17.0954521 24.447331,17.1467397 L25.2659594,18.2642192 L25.8794376,17.0954521 C27.2099553,14.506411 28.5907744,12.0179726 30.0741685,9.58082192 L30.1254561,9.47923288 L30.2793188,9.17545205 L30.3809076,9.02257534 C31.0466596,7.95638356 31.6088502,6.94049315 32.2736159,5.87430137 L33.6041337,3.79221918 L31.4046862,4.75780822 Z" id="Shape"></path>
        </g>
    </g>
</svg>