<?xml version="1.0" encoding="UTF-8"?>
<svg width="80px" height="20px" viewBox="0 0 80 20" version="1.1" xmlns="http://www.w3.org/2000/svg" xmlns:xlink="http://www.w3.org/1999/xlink">
    <!-- Generator: Sketch 52.6 (67491) - http://www.bohemiancoding.com/sketch -->
    <title>logo-squish</title>
    <desc>Created with Sketch.</desc>
    <g id="Page-1" stroke="none" stroke-width="1" fill="none" fill-rule="evenodd">
        <g id="logo-squish" fill="#FFFFFF">
            <path d="M75.6435556,2.37217391 L75.6435556,7.3173913 L72.1146667,7.3173913 L72.1146667,2.37217391 C72.1146667,1.21217391 71.16,0.272173913 69.984,0.272173913 C68.8106667,0.272173913 67.8533333,1.21217391 67.8533333,2.37217391 L67.8533333,16.7643478 C67.8533333,17.9217391 68.8106667,18.8652174 69.984,18.8652174 C71.16,18.8652174 72.1146667,17.9217391 72.1146667,16.7643478 L72.1146667,10.8078261 L75.6435556,10.8078261 L75.6435556,16.7643478 C75.6435556,17.9286957 76.6053333,18.8791304 77.7884444,18.8791304 C78.9688889,18.8791304 79.9306667,17.9286957 79.9306667,16.7643478 C79.9306667,16.7469565 79.9297778,16.7304348 79.928,16.7026087 L79.9288889,2.42608696 C79.9297778,2.40695652 79.9306667,2.39130435 79.9306667,2.37217391 C79.9306667,1.20608696 78.9688889,0.25826087 77.7884444,0.25826087 C76.6053333,0.25826087 75.6435556,1.20608696 75.6435556,2.37217391 M53.3688889,5.28608696 C53.3688889,7.10434783 54.0017778,8.02 55.1697778,9.07652174 C55.6675556,9.52347826 56.6346667,10.1921739 58.3022222,11.2530435 L58.5351111,11.4034783 C59.9377778,12.3078261 60.7848889,12.8556522 60.7848889,13.9652174 C60.7848889,14.993913 60.176,15.6330435 59.1937778,15.6330435 C57.8924444,15.6330435 57.4302222,15.04 57.4302222,13.3782609 L57.4302222,12.9147826 L57.4195556,12.6495652 L57.4151111,12.6495652 C57.3137778,11.5643478 56.3848889,10.7095652 55.2568889,10.7095652 C54.0613333,10.7095652 53.0888889,11.6695652 53.0888889,12.8486957 C53.0888889,12.8791304 53.0915556,12.9121739 53.0933333,12.9434783 L53.0951111,12.9495652 C53.0933333,13.0452174 53.0888889,13.1330435 53.0826667,13.22 C53.0782222,13.3234783 53.0711111,13.426087 53.0711111,13.5252174 C53.0711111,17.193913 54.8835556,18.9026087 58.7715556,18.9026087 C62.9084444,18.9026087 65.0942222,17.0269565 65.0942222,13.4773913 C65.0942222,11.2095652 63.9031111,10.0182609 61.8426667,8.72869565 C61.4008889,8.45652174 60.9848889,8.21217391 60.5973333,7.9826087 C58.7466667,6.89304348 57.6284444,6.23826087 57.6284444,4.96782609 C57.6284444,4 58.2044444,3.42347826 59.1706667,3.42347826 C59.5511111,3.42347826 60.712,3.42347826 60.712,5.65130435 L60.7235556,6.01565217 L60.7404444,6.01565217 C60.872,7.03652174 61.7617778,7.83217391 62.8346667,7.83217391 C63.9973333,7.83217391 64.9457778,6.89826087 64.9457778,5.75043478 L64.9457778,5.28608696 C64.9457778,1.94434783 62.992,0.177391304 59.2951111,0.177391304 C55.6951111,0.177391304 53.3688889,2.18347826 53.3688889,5.28608696" id="Shape" fill-rule="nonzero"></path>
            <path d="M46.0586667,2.31478261 L46.0631111,17.146087 L46.0862222,17.146087 C46.2426667,18.146087 47.1173333,18.8826087 48.1431111,18.8791304 C49.2915556,18.8791304 50.2266667,17.9573913 50.2266667,16.8234783 C50.2266667,16.7678261 50.2222222,16.713913 50.2204444,16.6782609 L50.2186667,2.4773913 C50.2222222,2.42521739 50.2266667,2.36956522 50.2266667,2.31478261 C50.2266667,1.18173913 49.2915556,0.260869565 48.1431111,0.260869565 C46.9955556,0.260869565 46.0586667,1.18173913 46.0586667,2.31478261 Z" id="Path"></path>
            <path d="M30.1777778,2.35217391 L30.1777778,12.2782609 C30.1777778,16.7982609 32.1937778,18.9026087 36.5262222,18.9026087 C41.032,18.9026087 42.8711111,16.8330435 42.8711111,11.7643478 L42.8711111,2.57304348 C42.8791111,2.49913043 42.8844444,2.42782609 42.8844444,2.35217391 C42.8844444,1.20434783 41.936,0.270434783 40.7724444,0.270434783 C39.608,0.270434783 38.6622222,1.20434783 38.6622222,2.35217391 L38.6622222,11.3243478 C38.6622222,14.5573913 38.3457778,15.7043478 36.576,15.7043478 C34.6133333,15.7043478 34.4382222,14.5695652 34.4382222,11.3243478 L34.4391111,2.35217391 C34.4391111,1.19565217 33.4817778,0.253043478 32.3084444,0.253043478 C31.1351111,0.253043478 30.1777778,1.19565217 30.1777778,2.35217391 M15.4702222,2.4 C14.4008889,3.98347826 14.1848889,6.1373913 14.1848889,9.10173913 C14.1848889,13.0069565 14.3377778,15.9052174 16.3102222,17.6130435 C17.256,18.4443478 18.5484444,18.8278261 20.3848889,18.8278261 C21.52,18.8278261 22.5208889,18.6295652 23.3644444,18.233913 L24.3795556,19.2391304 L24.5626667,19.4147826 L24.5795556,19.3965217 C24.9368889,19.6591304 25.3706667,19.8008696 25.816,19.8008696 C26.3688889,19.8017391 26.8986667,19.5843478 27.2871111,19.1965217 C28.1013333,18.3982609 28.1013333,17.0930435 27.2853333,16.2930435 C27.2515556,16.2591304 27.216,16.2269565 27.1795556,16.1956522 L26.08,15.1130435 C26.5768889,13.7530435 26.8284444,11.8947826 26.8284444,9.58869565 C26.8284444,6.25478261 26.6195556,4.01304348 25.5422222,2.42347826 C24.5786667,1.0226087 22.7902222,0.253043478 20.5075556,0.253043478 C18.1875556,0.253043478 16.4,1.01478261 15.4702222,2.4 M18.4702222,9.48956522 C18.4702222,5.08521739 18.7777778,3.52347826 20.5075556,3.52347826 C22.0871111,3.52347826 22.5208889,4.76782609 22.5208889,9.32086957 C22.5208889,13.786087 22.3342222,15.6078261 20.4577778,15.6078261 C18.7706667,15.6078261 18.4702222,14.0043478 18.4702222,9.48956522 M0.298666667,5.28608696 C0.298666667,7.10434783 0.931555556,8.02 2.10044444,9.07652174 C2.59822222,9.52347826 3.56622222,10.1921739 5.232,11.2530435 L5.46488889,11.4034783 C6.86844444,12.3078261 7.71466667,12.8556522 7.71466667,13.9652174 C7.71466667,14.993913 7.10577778,15.6330435 6.12622222,15.6330435 C4.82133333,15.6330435 4.36,15.04 4.36,13.3782609 L4.36,12.9147826 L4.34933333,12.6495652 L4.34577778,12.6495652 C4.24266667,11.5643478 3.31377778,10.7095652 2.18577778,10.7095652 C0.992,10.7095652 0.0195555556,11.6695652 0.0195555556,12.8486957 C0.0195555556,12.8791304 0.0213333333,12.9121739 0.0222222222,12.9434783 L0.0248888889,12.9495652 C0.0222222222,13.0452174 0.0195555556,13.1330435 0.0133333333,13.22 C0.008,13.3234783 0,13.426087 0,13.5252174 C0,17.193913 1.81333333,18.9026087 5.70222222,18.9026087 C9.83911111,18.9026087 12.024,17.0269565 12.024,13.4773913 C12.024,11.2095652 10.8311111,10.0182609 8.77244444,8.72869565 C8.33244444,8.45652174 7.91466667,8.21217391 7.52533333,7.9826087 C5.67466667,6.89304348 4.55822222,6.23826087 4.55822222,4.96782609 C4.55822222,4 5.13422222,3.42347826 6.10044444,3.42347826 C6.48088889,3.42347826 7.64088889,3.42347826 7.64088889,5.65130435 L7.65244444,6.01565217 L7.67022222,6.01565217 C7.80266667,7.03652174 8.69066667,7.83217391 9.76533333,7.83217391 C10.9297778,7.83217391 11.8764444,6.89826087 11.8764444,5.75043478 L11.8764444,5.28608696 C11.8764444,1.94434783 9.92088889,0.177391304 6.22311111,0.177391304 C2.624,0.177391304 0.298666667,2.18347826 0.298666667,5.28608696" id="Shape" fill-rule="nonzero"></path>
        </g>
    </g>
</svg>