<?xml version="1.0" encoding="UTF-8"?>
<svg width="70px" height="46px" viewBox="0 0 70 46" version="1.1" xmlns="http://www.w3.org/2000/svg" xmlns:xlink="http://www.w3.org/1999/xlink">
    <!-- Generator: Sketch 52.6 (67491) - http://www.bohemiancoding.com/sketch -->
    <title>logo-mobydish</title>
    <desc>Created with Sketch.</desc>
    <g id="Page-1" stroke="none" stroke-width="1" fill="none" fill-rule="evenodd">
        <g id="logo-mobydish">
            <polygon id="Path" fill="#FFFFFF" points="37.9979012 9.12101887 44.5044444 9.12101887 44.5044444 12.431283 37.9979012 12.431283"></polygon>
            <path d="M47.3312346,12.431283 L31.5838272,12.431283 C25.8455556,12.431283 21.1935802,17.0607925 21.1935802,22.77 L21.1935802,29.3610189 C21.1935802,31.981283 19.0581481,34.1042264 16.4249383,34.1042264 C14.0267901,34.1042264 12.0451852,32.3449434 11.7081481,30.0527547 C11.5862963,29.2759623 11.9933333,28.7517358 12.1558025,28.577283 L12.2206173,28.5130566 L14.7985185,25.9492075 C16.0982716,24.656 16.0982716,22.5582264 14.7985185,21.2667547 C13.4987654,19.9735472 11.392716,19.9735472 10.0903704,21.2667547 L8.86148148,22.4905283 L8.85888889,22.4922642 L8.8537037,22.4974717 C8.78888889,22.5616981 8.30061728,23.0052075 7.78123457,22.494 L6.5462963,21.2650189 C5.24654321,19.9709434 3.13876543,19.9709434 1.83901235,21.2650189 C0.538395062,22.5582264 0.538395062,24.656 1.83901235,25.9474717 L4.07987654,28.1780377 C4.17061728,28.2717736 4.89135802,29.0624528 5.02790123,30.6655094 C5.3554321,34.7230566 7.22296296,41.2255472 14.3396296,41.2255472 L26.8203704,41.2255472 L26.8151852,45.8602642 C26.8151852,45.965283 26.8739506,45.988717 26.9076543,45.9947925 C30.7714815,45.9609434 33.1324691,43.5672075 34.5212346,41.2255472 L47.3295062,41.2255472 C53.0669136,41.2255472 57.7188889,36.5960377 57.7188889,30.8859623 L57.7188889,22.7665283 C57.7206173,17.0607925 53.068642,12.431283 47.3312346,12.431283 Z" id="Path" fill="#4CE1DE"></path>
            <path d="M47.0339506,5.53128302 C47.0339506,4.12350943 45.8871605,2.9830566 44.4724691,2.9830566 C44.4577778,2.9830566 44.4448148,2.98479245 44.4301235,2.98479245 C44.4283951,2.98479245 44.4266667,2.9830566 44.4232099,2.9830566 C44.2598765,2.98045283 44.2434568,2.82596226 44.2434568,2.82596226 L44.24,2.82769811 C44.1604938,1.25501887 42.8546914,0 41.2516049,0 C39.6580247,0 38.36,1.2385283 38.2640741,2.7990566 C38.2623457,2.80426415 38.2597531,2.8094717 38.2597531,2.81554717 C38.2433333,3.00649057 38.1085185,2.98479245 38.1085185,2.98479245 L38.1067901,2.9865283 C38.0825926,2.98479245 38.0583951,2.9830566 38.0324691,2.9830566 C36.618642,2.9830566 35.4718519,4.12350943 35.4718519,5.53128302 C35.4718519,6.84445283 36.47,7.92328302 37.7533333,8.06301887 C37.7533333,8.06301887 37.9996296,8.06996226 37.9996296,8.39803774 L37.9996296,12.431283 L39.611358,12.431283 L39.611358,10.1972453 C39.611358,10.0141132 39.7608642,9.86569811 39.9449383,9.86569811 C40.1281481,9.86569811 40.2776543,10.0141132 40.2776543,10.1972453 L40.2776543,12.431283 L42.2281481,12.431283 L42.2281481,10.1972453 C42.2281481,10.0141132 42.3767901,9.86569811 42.5608642,9.86569811 C42.7449383,9.86569811 42.8935802,10.0141132 42.8935802,10.1972453 L42.8935802,12.431283 L44.5061728,12.431283 L44.5061728,8.43449057 C44.5061728,8.06822642 44.8112346,8.05520755 44.8112346,8.05520755 L44.8112346,8.0534717 C46.064321,7.89030189 47.0339506,6.82449057 47.0339506,5.53128302 Z" id="Path" fill="#0E6F7B"></path>
            <path d="M65.0706173,23.839283 L57.7206173,23.8297358 L57.7206173,31.3407547 C60.3054321,30.969283 64.6359259,29.5120377 65.2088889,23.9347547 C65.2019753,23.9000377 65.1777778,23.839283 65.0706173,23.839283 Z" id="Path" fill="#4CE1DE"></path>
            <path d="M58.3532099,19.2835472 L68.7149383,19.2956981 C68.7149383,19.2956981 68.7944444,19.3000377 68.7814815,19.3989811 C68.0935802,21.6295472 66.0117284,23.2499623 63.5453086,23.2464906 L63.5116049,23.2464906 C61.0451852,23.2430189 58.9667901,21.6165283 58.2849383,19.3859623 C58.2737037,19.2870189 58.3532099,19.2835472 58.3532099,19.2835472 Z" id="Path" fill="#0E6F7B"></path>
            <path d="M64.2090123,15.4820377 C64.2254321,15.4004528 64.2418519,15.3232075 64.2677778,15.2503019 C64.321358,15.1044906 64.395679,14.9777736 64.4803704,14.8796981 C64.5641975,14.7807547 64.6583951,14.7104528 64.741358,14.6575094 C64.8269136,14.6063019 64.9081481,14.5767925 64.9764198,14.5559623 C65.0058025,14.547283 65.0334568,14.5412075 65.0576543,14.536 C65.0887654,14.5325283 65.1207407,14.536 65.1406173,14.5603019 C65.1648148,14.5854717 65.1501235,14.6375472 65.1501235,14.6410189 C65.1423457,14.6644528 65.1337037,14.6904906 65.1241975,14.7182642 C65.1077778,14.777283 65.0887654,14.846717 65.0758025,14.9204906 C65.0688889,14.9569434 65.0611111,14.9942642 65.0593827,15.0350566 C65.0541975,15.0732453 65.0524691,15.1123019 65.0524691,15.1522264 C65.0481481,15.2312075 65.0593827,15.3110566 65.0723457,15.3856981 C65.0758025,15.4230189 65.0948148,15.4629434 65.0982716,15.5002642 C65.1095062,15.5384528 65.1259259,15.5775094 65.1354321,15.6139623 C65.1518519,15.6547547 65.1665432,15.6929434 65.1812346,15.7337358 C65.2019753,15.7745283 65.2218519,15.8170566 65.2374074,15.858717 C65.257284,15.9012453 65.2832099,15.9455094 65.3039506,15.9915094 L65.3869136,16.1676981 C65.4111111,16.2215094 65.4439506,16.2987547 65.4698765,16.3742642 C65.4975309,16.4497736 65.52,16.5235472 65.5398765,16.5964528 C65.577037,16.744 65.6012346,16.9002264 65.6046914,17.054717 C65.602963,17.2135472 65.5934568,17.3663019 65.5476543,17.5112453 C65.5087654,17.6544528 65.4422222,17.7855094 65.3661728,17.8887925 C65.3290123,17.94 65.2909877,17.9877358 65.2477778,18.0250566 C65.2088889,18.0649811 65.1665432,18.0979623 65.1259259,18.1257358 C65.0464198,18.1830189 64.972963,18.2194717 64.9081481,18.2437736 C64.898642,18.2472453 64.8891358,18.2489811 64.8804938,18.2524528 C64.8562963,18.2602642 64.8079012,18.2689434 64.7707407,18.2602642 C64.7214815,18.2472453 64.7560494,18.1370189 64.7560494,18.1370189 C64.7603704,18.1274717 64.7620988,18.1187925 64.7655556,18.1075094 C64.8009877,17.9912075 64.837284,17.8332453 64.8320988,17.675283 C64.8320988,17.6362264 64.824321,17.5963019 64.8225926,17.5572453 C64.811358,17.514717 64.811358,17.4782642 64.7983951,17.4374717 C64.7819753,17.3584906 64.7491358,17.2743019 64.7188889,17.1875094 C64.6825926,17.0989811 64.6471605,17.0069811 64.597037,16.9115094 C64.5754321,16.8637736 64.5546914,16.8116981 64.5287654,16.7700377 C64.5045679,16.7240377 64.4864198,16.6815094 64.4509877,16.6190189 L64.4069136,16.5304906 L64.395679,16.5087925 L64.3904938,16.4975094 C64.3844444,16.4862264 64.3974074,16.5105283 64.395679,16.5087925 L64.395679,16.5070566 L64.3939506,16.502717 L64.3904938,16.4957736 L64.3662963,16.4402264 C64.334321,16.3664528 64.2997531,16.2935472 64.2755556,16.2163019 C64.2530864,16.134717 64.2332099,16.0557358 64.2141975,15.9767547 C64.2055556,15.8916981 64.1977778,15.8092453 64.1925926,15.7285283 C64.1925926,15.6434717 64.1995062,15.5610189 64.2090123,15.4820377 Z M61.4893827,15.4776981 C61.5058025,15.3969811 61.5222222,15.3197358 61.5481481,15.2476981 C61.6017284,15.1027547 61.6760494,14.9760377 61.7607407,14.8779623 C61.8437037,14.7790189 61.9361728,14.708717 62.0217284,14.6557736 C62.1064198,14.6036981 62.1876543,14.5750566 62.2541975,14.5542264 C62.2844444,14.5455472 62.3120988,14.5394717 62.3362963,14.536 C62.3674074,14.5325283 62.3985185,14.536 62.4192593,14.5576981 C62.4434568,14.5854717 62.4287654,14.6349434 62.4261728,14.639283 C62.4192593,14.662717 62.4097531,14.6887547 62.4002469,14.7147925 C62.3838272,14.7729434 62.365679,14.8432453 62.352716,14.9170189 C62.3449383,14.9534717 62.3380247,14.9907925 62.3362963,15.030717 C62.3302469,15.0697736 62.3285185,15.1079623 62.3285185,15.1487547 C62.3250617,15.226 62.3362963,15.306717 62.3492593,15.3822264 C62.352716,15.4195472 62.3708642,15.4594717 62.374321,15.4967925 C62.3855556,15.5349811 62.4028395,15.5740377 62.4097531,15.6122264 C62.4261728,15.6530189 62.4434568,15.6912075 62.4564198,15.732 C62.4762963,15.7727925 62.497037,15.8144528 62.5117284,15.8569811 C62.5316049,15.8995094 62.5575309,15.9437736 62.5782716,15.9897736 L62.6612346,16.1659623 C62.6871605,16.2197736 62.7182716,16.2987547 62.7441975,16.3742642 C62.7744444,16.4497736 62.794321,16.5235472 62.8150617,16.5964528 C62.8539506,16.744 62.8755556,16.9002264 62.8798765,17.054717 C62.877284,17.2135472 62.868642,17.3663019 62.8219753,17.5112453 C62.7830864,17.6544528 62.7165432,17.7855094 62.641358,17.8887925 C62.6024691,17.94 62.5653086,17.9877358 62.522963,18.0250566 C62.4840741,18.0649811 62.4417284,18.0979623 62.4002469,18.1257358 C62.3207407,18.1830189 62.247284,18.2194717 62.1824691,18.2437736 C62.172963,18.2472453 62.164321,18.2489811 62.1548148,18.2524528 C62.1306173,18.2602642 62.0822222,18.2689434 62.0459259,18.2602642 C61.9958025,18.2472453 62.0312346,18.1370189 62.0312346,18.1370189 C62.0346914,18.1274717 62.0364198,18.1187925 62.0398765,18.1075094 C62.0753086,17.9912075 62.1124691,17.8332453 62.1064198,17.675283 C62.1064198,17.6362264 62.0995062,17.5936981 62.0977778,17.5572453 C62.0865432,17.514717 62.0848148,17.4782642 62.0735802,17.4374717 C62.0562963,17.3584906 62.0234568,17.2743019 61.9940741,17.1875094 C61.9569136,17.0989811 61.9214815,17.0069811 61.8722222,16.9115094 C61.8497531,16.8637736 61.8290123,16.8116981 61.8030864,16.7700377 C61.7771605,16.7257736 61.7607407,16.6815094 61.7261728,16.6190189 L61.6812346,16.5304906 L61.67,16.5087925 L61.6648148,16.4975094 C61.6587654,16.4862264 61.6717284,16.5105283 61.67,16.5087925 L61.6682716,16.5070566 L61.6665432,16.502717 L61.6630864,16.4957736 L61.6388889,16.4402264 C61.6051852,16.364717 61.5723457,16.2935472 61.5481481,16.2163019 C61.5239506,16.134717 61.5040741,16.0557358 61.4876543,15.9767547 C61.4781481,15.8916981 61.4703704,15.8092453 61.4651852,15.7285283 C61.4746914,15.64 61.4798765,15.5575472 61.4893827,15.4776981 Z" id="Shape" fill="#4CE1DE" fill-rule="nonzero"></path>
            <path d="M25.0954321,22.77 L25.0954321,29.3610189 C25.0954321,31.981283 22.96,34.1042264 20.3267901,34.1042264 L16.4249383,34.1042264 C19.0581481,34.1042264 21.1935802,31.981283 21.1935802,29.3610189 L21.1935802,22.77 C21.1935802,17.0607925 25.8455556,12.431283 31.5838272,12.431283 L35.4865432,12.431283 C29.745679,12.431283 25.0954321,17.0607925 25.0954321,22.77 Z M26.8255556,36.8659623 L22.8709877,41.1977736 L26.8203704,41.2029811 L26.8255556,36.8659623 Z" id="Shape" fill="#32C0C3" fill-rule="nonzero"></path>
            <path d="M49.3949383,30.946717 C48.9991358,30.7444906 48.6137037,30.5223019 48.2395062,30.2827547 C48.527284,29.7863019 48.6958025,29.2117358 48.6958025,28.5989811 C48.6975309,26.7312075 47.18,25.2149434 45.302963,25.2132075 C43.4259259,25.2114717 41.9023457,26.7225283 41.9006173,28.5903019 C41.8988889,30.4572075 43.417284,31.9734717 45.2934568,31.9752075 C46.1187654,31.9769434 46.8749383,31.6844528 47.464321,31.199283 C47.8635802,31.4605283 48.3095062,31.7235094 48.7977778,31.9752075 C50.4354321,32.8223019 52.8102469,33.6520377 55.8124691,33.6520377 C56.3119753,33.6520377 56.8296296,33.6277358 57.3637037,33.5782642 C57.4717284,33.1781509 57.5555556,32.7719623 57.6134568,32.3623019 C54.6777778,32.7112075 51.9201235,32.2390566 49.3949383,30.946717 Z" id="Path" fill="#FFFFFF"></path>
            <path d="M43.2176543,28.5920377 C43.2150617,29.7342264 44.1458025,30.6637736 45.2951852,30.6637736 C46.4437037,30.6655094 47.3779012,29.7403019 47.3796296,28.5972453 C47.381358,27.4550566 46.4514815,26.5255094 45.3012346,26.5237736 C44.1509877,26.5237736 43.2193827,27.4489811 43.2176543,28.5920377 Z M69.3587654,22.5660377 L57.7206173,22.551283 L57.7206173,23.8297358 L69.3561728,23.8444906 C69.711358,23.8453585 69.9991358,23.5589434 70,23.2056981 C70.0008642,22.8533208 69.7130864,22.5660377 69.3587654,22.5660377 Z" id="Shape" fill="#0D6E7B" fill-rule="nonzero"></path>
            <path d="M57.7206173,23.8297358 L57.7206173,31.3407547 C58.502716,31.2287925 59.4455556,31.0170189 60.3944444,30.6212453 L60.4039506,23.8332075 L57.7206173,23.8297358 Z" id="Path" fill="#32C0C3"></path>
        </g>
    </g>
</svg>