<?xml version="1.0" encoding="UTF-8"?>
<svg width="36px" height="41px" viewBox="0 0 36 41" version="1.1" xmlns="http://www.w3.org/2000/svg" xmlns:xlink="http://www.w3.org/1999/xlink">
    <!-- Generator: Sketch 52.6 (67491) - http://www.bohemiancoding.com/sketch -->
    <title>Logo</title>
    <desc>Created with Sketch.</desc>
    <g id="Page-1" stroke="none" stroke-width="1" fill="none" fill-rule="evenodd">
        <path d="M18,0 C20.4852813,0 22.5,2.03959169 22.5,4.55555555 C22.5,6.67824174 21.0659075,8.46184244 19.1250545,8.96757703 L19.1248923,24.2262552 C20.4615181,23.116913 22.3544274,22.55 24.7477097,22.55 C27.985014,22.55 29.7406526,21.1353406 30.262909,18.0478112 C28.3791455,17.5038208 27,15.7482904 27,13.6666667 C27,11.1507028 29.0147187,9.11111111 31.5,9.11111111 C33.9852815,9.11111111 36,11.1507028 36,13.6666667 C36,15.8187228 34.5259483,17.6222451 32.5442039,18.098944 C31.9129772,22.4895732 29.2225506,24.8277778 24.7477097,24.8277778 C21.1817364,24.8277778 19.4435159,26.1768658 19.1219871,29.0550499 L19.1250341,29.0289225 L19.1250545,32.032423 C21.0659075,32.5381576 22.5,34.3217584 22.5,36.4444445 C22.5,38.9604082 20.4852813,41 18,41 C15.5147187,41 13.5,38.9604082 13.5,36.4444445 C13.5,34.3217458 14.9341093,32.5381367 16.8749796,32.0324141 L16.8749659,29.0486367 L16.8656514,28.9691628 C16.5192466,26.150019 14.7803136,24.8277778 11.25,24.8277778 C6.77496239,24.8277778 4.08449581,22.4893677 3.45339539,18.0983293 C1.47288572,17.6208179 0,15.8178712 0,13.6666667 C0,11.1507028 2.01471862,9.11111111 4.5,9.11111111 C6.98528137,9.11111111 9,11.1507028 9,13.6666667 C9,15.7490951 7.61978805,17.5051781 5.73492876,18.0485411 C6.257289,21.1355273 8.01290938,22.55 11.25,22.55 C13.6446671,22.55 15.5383822,23.1175693 16.8751372,24.2281816 L16.8749796,8.96758587 C14.9341093,8.46186331 13.5,6.67825415 13.5,4.55555555 C13.5,2.03959169 15.5147187,0 18,0 Z M18,34.1666667 C16.7672549,34.1666667 15.7627278,35.1835951 15.7627278,36.4444445 C15.7627278,37.7052937 16.7672549,38.7222221 18,38.7222221 C19.2327451,38.7222221 20.2372722,37.7052937 20.2372722,36.4444445 C20.2372722,35.1835951 19.2327451,34.1666667 18,34.1666667 Z M31.5,11.3888889 C30.2672549,11.3888889 29.2627278,12.4058175 29.2627278,13.6666667 C29.2627278,14.9275159 30.2672549,15.9444444 31.5,15.9444444 C32.732745,15.9444444 33.7372722,14.9275159 33.7372722,13.6666667 C33.7372722,12.4058175 32.732745,11.3888889 31.5,11.3888889 Z M4.5,11.3888889 C3.26725487,11.3888889 2.26272784,12.4058175 2.26272784,13.6666667 C2.26272784,14.9275159 3.26725487,15.9444444 4.5,15.9444444 C5.73274513,15.9444444 6.73727216,14.9275159 6.73727216,13.6666667 C6.73727216,12.4058175 5.73274513,11.3888889 4.5,11.3888889 Z M18,2.27777778 C16.7672549,2.27777778 15.7627278,3.29470635 15.7627278,4.55555555 C15.7627278,5.81640477 16.7672549,6.83333333 18,6.83333333 C19.2327451,6.83333333 20.2372722,5.81640477 20.2372722,4.55555555 C20.2372722,3.29470635 19.2327451,2.27777778 18,2.27777778 Z" id="Logo" fill="#FFFFFF" fill-rule="nonzero"></path>
    </g>
</svg>