<?xml version="1.0" encoding="UTF-8"?>
<svg width="34px" height="34px" viewBox="0 0 34 34" version="1.1" xmlns="http://www.w3.org/2000/svg" xmlns:xlink="http://www.w3.org/1999/xlink">
    <!-- Generator: Sketch 52.6 (67491) - http://www.bohemiancoding.com/sketch -->
    <title>logo-vera</title>
    <desc>Created with Sketch.</desc>
    <g id="Page-1" stroke="none" stroke-width="1" fill="none" fill-rule="evenodd">
        <g id="logo-vera" fill="#FFFFFF" fill-rule="nonzero">
            <path d="M16.9767368,33.3289474 C16.6054211,33.3289474 16.2341053,33.0068421 16.0954211,32.6382105 C15.1210526,29.6900526 14.0536316,26.7418947 12.8466316,23.8402632 C12.0556842,21.9031579 11.1895789,19.9973684 10.2483158,18.1282632 C8.76305263,15.0888421 7.18563158,12.0941579 5.42210526,9.23815789 L5.14384211,8.82389474 C3.84468421,6.52084211 2.35942105,4.26342105 0.828526316,2.05252632 C0.595894737,1.73042105 0.642421053,1.36178947 0.828526316,1.03968421 C0.967210526,0.809736842 1.24547368,0.671052632 1.52463158,0.671052632 C1.61678947,0.671052632 1.70984211,0.671052632 1.80289474,0.717578947 C6.48952632,2.19121053 10.8513684,4.53989474 14.7032105,7.62673684 C14.8884211,7.76452632 15.0745263,7.90231579 15.2597368,8.08663158 L16.3736842,9.05473684 L17.0697895,9.69894737 L17.5797895,9.23815789 L18.6937368,8.27094737 C18.8789474,8.13315789 19.0185263,7.99536842 19.2037368,7.85668421 C23.1486316,4.67857895 27.3252632,2.23684211 32.1971053,0.763210526 C32.2901579,0.717578947 32.4297368,0.717578947 32.5218947,0.717578947 C32.8001579,0.763210526 33.0327895,0.855368421 33.1714737,1.08531579 C33.4041053,1.36178947 33.3575789,1.77694737 33.1714737,2.09905263 C31.5940526,4.30994737 30.2483684,6.52084211 28.8561579,8.82389474 L28.8096316,8.91605263 C28.8096316,8.91605263 28.6709474,9.19252632 28.5778947,9.28468421 C26.8143684,12.2328421 25.1438947,15.3187895 23.6586316,18.4512632 C22.7773158,20.247 21.9416316,22.0901579 21.199,23.9324211 C19.9928947,26.7884211 18.8789474,29.8287368 17.9045789,32.8225263 C17.7193684,33.099 17.3480526,33.3289474 16.9767368,33.3289474 Z M5.00426316,5.185 C5.56168421,6.06005263 6.16473684,6.98163158 6.67473684,7.85668421 C6.67473684,7.85668421 6.86084211,8.17968421 6.953,8.31747368 C8.71652632,11.2656316 10.3404737,14.3050526 11.8257368,17.3453684 C12.7535789,19.2341579 13.6357895,21.1685789 14.4240526,23.1495263 C15.0745263,24.6696842 15.6775789,26.2354737 16.2341053,27.8012632 L16.9767368,29.6900526 L17.6728421,27.8012632 C18.2293684,26.2354737 18.8789474,24.6696842 19.5285263,23.1495263 C20.179,21.5372105 20.9207368,19.9248947 21.6633684,18.3591053 L21.7564211,18.1282632 L21.3851053,17.5753158 C21.3385789,17.4840526 21.2455263,17.3918947 21.199,17.2997368 L21.1068421,17.2075789 C20.9672632,17.0232632 20.8742105,16.8389474 20.7355263,16.7002632 C20.6424737,16.5624737 20.5494211,16.4703158 20.4572632,16.3325263 C20.3176842,16.1482105 20.2246316,16.0095263 20.0859474,15.8252105 C19.9928947,15.6874211 19.8998421,15.5487368 19.8076842,15.4565789 C19.6681053,15.2722632 19.5285263,15.1344737 19.4363684,14.9501579 C19.3433158,14.8123684 19.2502632,14.7202105 19.1572105,14.5815263 C19.0185263,14.3972105 18.8789474,14.2594211 18.7402632,14.0751053 L18.6937368,13.9829474 C18.6006842,13.8907895 18.5541579,13.7986316 18.462,13.7064737 C18.3224211,13.5221579 18.1828421,13.3843684 18.0441579,13.2000526 L17.9511053,13.1078947 C17.9045789,13.0157368 17.8115263,12.9692105 17.7658947,12.8770526 C17.5797895,12.6936316 17.4411053,12.5093158 17.255,12.3706316 L17.1619474,12.2784737 L17.0232632,12.1406842 C16.745,11.8642105 16.5123684,11.5877368 16.2341053,11.3577895 C15.538,10.7126842 14.8418947,10.0675789 14.1457895,9.469 C13.9605789,9.33031579 13.821,9.19252632 13.6357895,9.05473684 C11.2692105,7.11942105 8.67,5.50710526 5.93210526,4.21778947 L3.70510526,3.15842105 L5.00426316,5.185 Z M28.2531053,4.08 C25.3756316,5.36931579 22.7307895,7.16594737 20.2711579,9.19252632 C20.0859474,9.33031579 19.9463684,9.469 19.7611579,9.60678947 C19.4363684,9.88326316 19.1572105,10.1141053 18.8333158,10.4362105 L18.2758947,10.9426316 L18.5541579,11.2191053 C18.6006842,11.2656316 18.6472105,11.3112632 18.6472105,11.3577895 L18.7867895,11.4955789 C18.972,11.6798947 19.1115789,11.8642105 19.2967895,12.0485263 C19.4363684,12.1863158 19.5285263,12.325 19.6681053,12.4627895 C19.8076842,12.6471053 19.9928947,12.8314211 20.1324737,13.0157368 C20.2711579,13.1535263 20.3642105,13.2922105 20.5037895,13.43 C20.6424737,13.6143158 20.8285789,13.7986316 20.9672632,14.0285789 L21.0137895,14.0751053 C21.1068421,14.2128947 21.199,14.3050526 21.2920526,14.4437368 C21.4316316,14.6280526 21.6168421,14.858 21.7564211,15.0423158 C21.8029474,15.0888421 21.8494737,15.1344737 21.8494737,15.1801053 C21.8951053,15.2266316 21.9416316,15.2722632 21.9416316,15.3187895 L22.6842632,16.3325263 L23.2407895,15.2722632 C24.4477895,12.9235789 25.7004211,10.6661579 27.0461053,8.45526316 L27.0926316,8.36310526 L27.2322105,8.08752632 L27.3243684,7.94884211 C27.9283158,6.98163158 28.4383158,6.06005263 29.0413684,5.09284211 L30.2483684,3.20405263 L28.2531053,4.08 Z" id="Shape"></path>
        </g>
    </g>
</svg>