<?xml version="1.0" encoding="UTF-8"?>
<svg width="36px" height="35px" viewBox="0 0 36 35" version="1.1" xmlns="http://www.w3.org/2000/svg" xmlns:xlink="http://www.w3.org/1999/xlink">
    <!-- Generator: Sketch 52.6 (67491) - http://www.bohemiancoding.com/sketch -->
    <title>Fill-1</title>
    <desc>Created with Sketch.</desc>
    <g id="Page-1" stroke="none" stroke-width="1" fill="none" fill-rule="evenodd">
        <g id="logo-rr" transform="translate(-2.000000, -2.000000)" fill="#FFFFFF" fill-rule="nonzero">
            <path d="M11.1996392,15.3837529 C11.8678176,17.057798 12.8366966,17.8961372 14.1073005,17.8961372 C14.5914327,17.8961372 15.005101,17.7221499 15.3473836,17.3737702 C15.6903832,17.0255932 15.8624463,16.6020689 15.8624463,16.1042101 C15.8624463,15.1102141 15.2428144,14.6117477 14.0072376,14.6117477 C13.2551785,14.6117477 12.3194831,14.8686777 11.1996392,15.3837529 Z M27.8860708,18.8911459 C28.9436442,19.5870949 29.6726591,20.3131221 30.0761879,21.066493 C30.478283,21.8229022 30.6786136,22.8213542 30.6786136,24.0646846 C30.6786136,27.5133391 29.1023929,30.5326967 25.9501563,33.1199219 C22.7956666,35.7066406 19.1241682,37 14.9313597,37 C11.0230697,37 7.89029272,36.005599 5.53487207,34.0149739 C3.17904176,32.0252604 2,29.371904 2,26.0556135 C2,23.665871 2.56565737,21.5901765 3.6974842,19.8230613 C4.83002796,18.0582754 6.69568334,16.3367333 9.29486001,14.6613715 C9.04342259,13.5697483 8.91908654,12.6176794 8.91908654,11.8064815 C8.91908654,9.12527488 9.8744463,6.82181713 11.7859852,4.89236111 C13.6988555,2.96391783 15.9787937,2 18.6297941,2 C20.2734062,2 21.6013645,2.38109086 22.6153076,3.14074074 C23.6305821,3.9004919 24.1386803,4.90886864 24.1386803,6.16587095 C24.1386803,7.12401621 23.8141161,7.94706308 23.163861,8.63217593 C22.5153472,9.31911169 21.7430092,9.66212384 20.8481788,9.66212384 C20.1909593,9.66212384 19.8618887,9.42190394 19.8618887,8.94055266 C19.8618887,8.77476852 19.9712716,8.50183739 20.1888085,8.1197338 C20.4563256,7.63949653 20.5898793,7.2239728 20.5898793,6.87599826 C20.5898793,6.2791956 20.2997277,5.78143808 19.7151229,5.38313079 C19.1311327,4.98543113 18.4053951,4.78653067 17.5376032,4.78653067 C15.7693478,4.78653067 14.1880062,5.5573206 12.7954219,7.09930556 C11.400994,8.64210069 10.7052652,10.4090133 10.7052652,12.3985243 C10.7052652,12.7462963 10.7284117,13.2441551 10.7745001,13.8908854 C11.8481532,13.3764179 13.023303,13.119184 14.2977988,13.119184 C15.5729092,13.119184 16.597299,13.4179398 17.3696369,14.0153501 C18.1412578,14.6117477 18.5285022,15.4173756 18.5285022,16.427879 C18.5285022,17.4065827 18.1791527,18.1978298 17.4836287,18.8034433 C16.7878998,19.4096644 15.8694107,19.7114584 14.7288783,19.7114584 C12.6313475,19.7114584 10.9874281,18.5339555 9.79619857,16.1797599 C7.21525239,18.1335214 5.92436963,20.6830729 5.92436963,23.8315538 C5.92436963,26.8286314 7.00857186,29.4161603 9.1763618,31.5934317 C11.3411816,33.7719184 13.9323697,34.8606048 16.9441904,34.8606048 C19.8895417,34.8606048 22.470283,33.880787 24.6869266,31.9177084 C26.9042871,29.9555411 28.0126601,27.6681858 28.0126601,25.0512876 C28.0126601,23.8603154 27.5930515,22.8213542 26.7539367,21.935518 C25.9155389,21.050188 24.9362132,20.6069155 23.8117605,20.6069155 C22.7373904,20.6069155 21.8206424,20.9783855 21.0566004,21.7174769 C20.2929681,22.4597078 19.9125858,23.355165 19.9125858,24.4031394 C19.9125858,25.0535156 20.1013431,25.6027199 20.4782432,26.0530816 C20.8551432,26.5025318 21.3219668,26.7279658 21.8748218,26.7279658 C22.3611049,26.7279658 22.7548016,26.4621238 23.0568337,25.9300347 C23.2453862,25.6310764 23.4418249,25.4827112 23.6488126,25.4827112 C24.0764099,25.4827112 24.2732582,25.7296152 24.2386408,26.2225116 C24.2054572,26.8152633 23.9418319,27.3120081 23.4463313,27.7150752 C22.9519572,28.1172309 22.3530138,28.3193721 21.6474527,28.3193721 C20.5402064,28.3193721 19.5850515,27.8299189 18.780042,26.8513166 C17.9756471,25.8729167 17.5721183,24.7034143 17.5721183,23.343316 C17.5721183,20.5749132 19.7059053,18.2941407 23.9705091,16.503125 L27.5734896,14.9827112 C33.1329705,12.6406684 35.9123013,9.94042246 35.9123013,6.88187211 C35.9123013,5.90185185 35.5860984,5.06736111 34.9351264,4.37769097 C34.2826181,3.68761574 33.493586,3.34237558 32.5638309,3.34237558 C31.8865374,3.34237558 31.2904617,3.60801505 30.7740676,4.13787616 C30.2568542,4.66743345 30.0002959,5.26778067 30.0002959,5.94074074 C30.0002959,6.56184895 30.3863111,6.94932002 31.1569079,7.09930556 C32.0785721,7.26427951 32.541811,7.58531539 32.541811,8.06231193 C32.541811,8.60493345 32.3111645,9.0999566 31.8530465,9.54322917 C31.3932899,9.98791956 30.8898005,10.2092014 30.3383793,10.2092014 C29.5208749,10.2092014 28.8653964,9.91115451 28.373378,9.3141493 C27.881462,8.71673901 27.6343262,7.93815104 27.6343262,6.97494213 C27.6343262,5.66629051 28.1381227,4.51704282 29.14377,3.52993345 C30.1509535,2.54322917 31.3247719,2.0490162 32.667376,2.0490162 C34.2263904,2.0490162 35.5053926,2.59356192 36.5032561,3.67961516 C37.5011195,4.76495949 38,6.14693287 38,7.82148437 C38,10.010706 37.1448055,12.0338397 35.4341094,13.8908854 C34.4109485,15.0190683 32.4579302,16.3704571 29.5726987,17.9444445 C29.2025582,18.1620804 28.6416121,18.4765335 27.8860708,18.8911459 Z" id="Fill-1"></path>
        </g>
    </g>
</svg>