<?xml version="1.0" encoding="UTF-8"?>
<svg width="36px" height="36px" viewBox="0 0 36 36" version="1.1" xmlns="http://www.w3.org/2000/svg" xmlns:xlink="http://www.w3.org/1999/xlink">
    <!-- Generator: Sketch 52.6 (67491) - http://www.bohemiancoding.com/sketch -->
    <title>Shape</title>
    <desc>Created with Sketch.</desc>
    <g id="Page-1" stroke="none" stroke-width="1" fill="none" fill-rule="evenodd">
        <g id="logo-exodus" transform="translate(-2.000000, -2.000000)" fill="#FFFFFF" fill-rule="nonzero">
            <path d="M27.2351,20 L38,30.7532024 L34.2092,30.7532 C33.5576,30.7541 32.933,30.4967 32.4722,30.0368 L22.43,20 L32.4722,9.9551 C32.933,9.4952 33.5576,9.2369 34.2092,9.2378 L38,9.23779766 L27.2351,20 Z M7.5251,9.9551 C7.0652,9.4961 6.4415,9.2378 5.7908,9.2378 L2,9.2378 L12.7622,20 L2,30.7532023 L5.7908,30.7532 C6.4415,30.7541 7.0652,30.4958 7.5251,30.0368 L17.57,20 L7.5251,9.9551 Z M20,22.43 L9.9551,32.4749 C9.4961,32.9348 9.2378,33.5585 9.2378,34.2092 L9.2378,38 L20,27.2378 L30.7622,38 L30.7622,34.2092 C30.7613,33.5585 30.5021,32.9348 30.0422,32.4749 L20,22.43 Z M20,17.57 L30.0422,7.5251 C30.5021,7.0652 30.7613,6.4415 30.7622,5.7908 L30.7622,2 L20,12.7622 L9.2378,2 L9.2378,5.7908 C9.2378,6.4415 9.4961,7.0652 9.9551,7.5251 L20,17.57 Z" id="Shape"></path>
        </g>
    </g>
</svg>